<?xml version="1.0" encoding="UTF-8"?><svg id="Layer_2" xmlns="http://www.w3.org/2000/svg" viewBox="0 0 132.2679 101.9637"><g id="Components"><g id="_2b1193e8-30e1-4a1e-9391-03419948785d_1"><path d="M56.8017,90.5679c-1.9009.2782-3.8429.428-5.8198.428-22.0638,0-40.0141-17.9503-40.0141-40.0141S28.918,10.9678,50.9819,10.9678s40.0141,17.9502,40.0141,40.0141c0,4.824-.8582,9.4514-2.4298,13.7376h11.5096c1.2211-4.3723,1.888-8.9757,1.888-13.7376C101.9637,22.8254,79.1384,0,50.9819,0S0,22.8254,0,50.9819s22.8254,50.9819,50.9819,50.9819c1.9692,0,3.9088-.1231,5.8198-.3404v-11.0554Z" style="fill:#3e52a0; stroke-width:0px;"/><path d="M27.2529,64.4643c-1.799,0-3.3794-.1736-4.7414-.5207-1.362-.3471-2.6266-.7787-3.7946-1.2939v-5.5854h.5364c1.1782.9992,2.4776,1.767,3.8974,2.3033,1.4198.537,2.7981.8052,4.1336.8052.3369,0,.7814-.0368,1.3334-.1109.5527-.0735.9965-.1892,1.3334-.3471.4104-.1783.7576-.4281,1.0414-.7494.2838-.3206.4261-.7439.4261-1.2701,0-.5888-.2314-1.0673-.6943-1.4355s-1.0155-.6364-1.6567-.8045c-.7998-.2103-1.6547-.4104-2.564-.5997-.91-.1892-1.7595-.4206-2.5483-.6943-1.8201-.6419-3.1242-1.5042-3.913-2.5878-.7889-1.0829-1.183-2.4401-1.183-4.071,0-2.1978.9311-3.9784,2.7927-5.3404,1.8616-1.362,4.186-2.0433,6.9739-2.0433,1.3987,0,2.79.1416,4.1731.4261,1.3838.2838,2.6212.6677,3.7157,1.1517v5.3642h-.52c-.874-.7467-1.9385-1.3776-3.1956-1.8929-1.2572-.5153-2.5483-.7732-3.8736-.7732-.5153,0-.9781.0368-1.3885.1103-.4098.0735-.8413.2158-1.2939.4261-.3682.1681-.6861.4179-.9543.7494s-.4023.7024-.4023,1.1122c0,.5997.213,1.0761.6391,1.428.4261.3526,1.249.6704,2.4694.9549.7889.179,1.5485.3526,2.2795.5207.731.1681,1.5124.3995,2.3435.6943,1.6302.5888,2.8417,1.3804,3.6367,2.3741.7936.9944,1.1911,2.3067,1.1911,3.9369,0,2.3353-.9175,4.2125-2.7539,5.6324-1.835,1.4205-4.3146,2.1304-7.4388,2.1304Z" style="fill:#000; stroke-width:0px;"/><path d="M64.9152,36.1936h-.8522c-.4206-.1266-1.0781-.2893-1.9725-.4894-.8944-.1994-1.7411-.2995-2.5402-.2995-2.2298,0-3.7504.4098-4.559,1.2306-.81.8202-1.2156,2.3564-1.2156,4.6066v.2845h8.7736v7.6995h-8.3951v27.7378h-11.0442v-27.7378h-4.4174v-7.6995h4.4174v-.9781c0-4.3337,1.1367-7.5845,3.4087-9.751s5.7106-3.2508,10.3186-3.2508c1.5982,0,3.0929.0585,4.48.1736,1.3885.1164,2.5878.2689,3.5979.4581v8.0153Z" style="fill:#000; stroke-width:0px;"/><path d="M72.4255,64.4643c-1.7996,0-3.3801-.1736-4.7414-.5207-1.3627-.3471-2.6273-.7787-3.7953-1.2939v-5.5854h.5364c1.1775.9992,2.4776,1.767,3.8974,2.3033,1.4198.537,2.7975.8052,4.1343.8052.3362,0,.78-.0368,1.3327-.1109.5527-.0735.9965-.1892,1.3327-.3471.4111-.1783.7582-.4281,1.0414-.7494.2845-.3206.4261-.7439.4261-1.2701,0-.5888-.2314-1.0673-.6943-1.4355-.4628-.3682-1.0142-.6364-1.6567-.8045-.7991-.2103-1.654-.4104-2.5633-.5997-.9093-.1892-1.7588-.4206-2.5483-.6943-1.8201-.6419-3.1242-1.5042-3.9124-2.5878-.7896-1.0829-1.1843-2.4401-1.1843-4.071,0-2.1978.9311-3.9784,2.7934-5.3404,1.8623-1.362,4.186-2.0433,6.9739-2.0433,1.3981,0,2.7893.1416,4.1737.4261,1.3831.2838,2.6205.6677,3.715,1.1517v5.3642h-.52c-.874-.7467-1.9385-1.3776-3.195-1.8929-1.2578-.5153-2.5483-.7732-3.8743-.7732-.5159,0-.9774.0368-1.3885.1103-.4098.0735-.8413.2158-1.2932.4261-.3689.1681-.6861.4179-.9543.7494-.2695.3315-.4029.7024-.4029,1.1122,0,.5997.2124,1.0761.6384,1.428.4261.3526,1.2497.6704,2.4694.9549.7896.179,1.5492.3526,2.2802.5207s1.5124.3995,2.3428.6943c1.6308.5888,2.8424,1.3804,3.6374,2.3741.7936.9944,1.1911,2.3067,1.1911,3.9369,0,2.3353-.9175,4.2125-2.7539,5.6324-1.835,1.4205-4.3153,2.1304-7.4381,2.1304Z" style="fill:#000; stroke-width:0px;"/><path d="M65.6093,80.0131c.5432,1.8425,1.9208,2.8512,3.8416,2.8512,1.9194,0,3.18-1.0666,3.18-2.3278,0-1.6295-1.1244-2.0753-3.3937-2.6763-1.281-.3301-2.5225-.5241-3.6088-1.5138-.6208-.5622-.9692-1.3572-.9692-2.2305,0-2.2114,1.8037-3.86,4.5004-3.86,2.5021,0,4.2091,1.202,4.9265,3.3944l-1.5709.3682c-.4656-1.5321-1.6485-2.3659-3.3556-2.3659-1.7261,0-2.7934.9502-2.7934,2.2305,0,.6208.2913,1.1442.7569,1.4545.8522.5629,1.8623.7378,2.9091,1.0285,2.9091.8338,4.3262,1.7649,4.3262,3.9961,0,2.289-1.9017,3.8988-4.8694,3.8988-2.8124,0-4.7332-1.3967-5.4901-3.9376l1.6104-.3104Z" style="fill:#000; stroke-width:0px;"/><path d="M75.3208,74.0383h1.4743l2.2121,8.031,2.0746-8.031h1.1449l2.2121,8.031,2.3278-8.031h1.3191l-3.0262,9.9708h-1.3l-2.1536-7.8955-2.0174,7.8955h-1.3382l-2.9295-9.9708Z" style="fill:#000; stroke-width:0px;"/><path d="M89.3203,70.5466h1.4743v1.4743h-1.4743v-1.4743ZM89.3203,74.0383h1.4743v9.9708h-1.4743v-9.9708Z" style="fill:#000; stroke-width:0px;"/><path d="M93.5267,74.0383h1.3586v1.8425c.8141-1.4348,1.8432-2.1141,3.2195-2.1141,2.1141,0,3.2399,1.3382,3.2399,3.9382v6.3042h-1.4362v-6.4403c0-1.6485-.7555-2.5606-2.0556-2.5606-1.59,0-2.871,1.4157-2.871,3.4917v5.5092h-1.4552v-9.9708Z" style="fill:#000; stroke-width:0px;"/><path d="M111.5231,84.0092h-1.3382v-1.9786c-.6793,1.4545-1.7656,2.2114-3.0847,2.2114-2.1536,0-3.8402-1.9984-3.8402-5.16,0-3.2392,1.7261-5.2764,3.9369-5.2764,1.2034,0,2.2121.6208,2.8914,1.7847v-5.0436h1.4348v13.4625ZM107.4691,75.0859c-1.5138,0-2.581,1.4157-2.581,3.9382,0,2.483,1.0291,3.8988,2.6001,3.8988,1.4157,0,2.6001-1.2415,2.6001-3.2004v-1.5328c0-1.9398-1.0482-3.1038-2.6191-3.1038Z" style="fill:#000; stroke-width:0px;"/><path d="M113.5147,79.0241c0-3.2208,1.8241-5.2573,4.4623-5.2573,2.6573,0,4.5004,2.0365,4.5004,5.2573,0,3.2004-1.8432,5.2566-4.5004,5.2566-2.6382,0-4.4623-2.0562-4.4623-5.2566ZM120.848,79.0241c0-2.5415-1.1449-4.0158-2.871-4.0158-1.7275,0-2.8519,1.4552-2.8519,4.0158,0,2.5409,1.1449,4.0151,2.8519,4.0151s2.871-1.494,2.871-4.0151Z" style="fill:#000; stroke-width:0px;"/><path d="M124.45,74.0383h1.3586v1.8425c.8141-1.4348,1.8432-2.1141,3.2195-2.1141,2.1141,0,3.2399,1.3382,3.2399,3.9382v6.3042h-1.4362v-6.4403c0-1.6485-.7555-2.5606-2.0556-2.5606-1.59,0-2.871,1.4157-2.871,3.4917v5.5092h-1.4552v-9.9708Z" style="fill:#000; stroke-width:0px;"/><path d="M63.7851,88.4429h9.2718v2.4251h-6.1299v3.084h4.8108v2.3278h-4.8108v5.6256h-3.1419v-13.4625Z" style="fill:#000; stroke-width:0px;"/><path d="M74.1187,88.4429h2.988v2.2114h-2.988v-2.2114ZM74.1187,91.9346h2.988v9.9708h-2.988v-9.9708Z" style="fill:#000; stroke-width:0px;"/><path d="M79.2753,88.4429h2.988v13.4625h-2.988v-13.4625Z" style="fill:#000; stroke-width:0px;"/><path d="M95.8382,91.7019c1.9793,0,3.0262,1.1442,3.0262,3.3365v6.8671h-2.8519v-6.4015c0-1.0475-.4656-1.6097-1.2606-1.6097-.9897,0-1.7071.8141-1.7071,2.1726v5.8386h-2.8519v-6.3627c0-1.1054-.4261-1.6683-1.2415-1.6683-.9311,0-1.6485.7759-1.6485,2.0174v6.0135h-2.8519v-9.9708h2.6586v1.5131c.6779-1.1639,1.6485-1.7459,2.8506-1.7459,1.3586,0,2.2706.5432,2.7934,1.7268.7569-1.1639,1.7656-1.7268,3.0847-1.7268Z" style="fill:#000; stroke-width:0px;"/></g></g></svg>